<?xml version="1.0" encoding="UTF-8" standalone="no"?>
<svg
   xmlns:dc="http://purl.org/dc/elements/1.1/"
   xmlns:cc="http://creativecommons.org/ns#"
   xmlns:rdf="http://www.w3.org/1999/02/22-rdf-syntax-ns#"
   xmlns:svg="http://www.w3.org/2000/svg"
   xmlns="http://www.w3.org/2000/svg"
   xmlns:sodipodi="http://sodipodi.sourceforge.net/DTD/sodipodi-0.dtd"
   xmlns:inkscape="http://www.inkscape.org/namespaces/inkscape"
   inkscape:version="1.0 (4035a4fb49, 2020-05-01)"
   height="24"
   width="24"
   sodipodi:docname="server-online.svg"
   xml:space="preserve"
   viewBox="0 0 24 24"
   y="0px"
   x="0px"
   focusable="false"
   id="Layer_1"
   version="1.1"><metadata
   id="metadata391"><rdf:RDF><cc:Work
       rdf:about=""><dc:format>image/svg+xml</dc:format><dc:type
         rdf:resource="http://purl.org/dc/dcmitype/StillImage" /><dc:title></dc:title></cc:Work></rdf:RDF></metadata><defs
   id="defs389" /><sodipodi:namedview
   inkscape:current-layer="Layer_1"
   inkscape:window-maximized="1"
   inkscape:window-y="30"
   inkscape:window-x="0"
   inkscape:cy="12.920825"
   inkscape:cx="9.2523759"
   inkscape:zoom="25.84375"
   showgrid="false"
   id="namedview387"
   inkscape:window-height="1020"
   inkscape:window-width="1680"
   inkscape:pageshadow="2"
   inkscape:pageopacity="0"
   guidetolerance="10"
   gridtolerance="10"
   objecttolerance="10"
   borderopacity="1"
   bordercolor="#666666"
   pagecolor="#ffffff" />
<style
   id="style382"
   type="text/css">
	.st0{fill:#606060;}
</style>
<path
   style="stroke-width:0.046875"
   id="path384"
   d="M 22.5,7.5 H 1.5 C 0.6703125,7.5 0,6.829687 0,6 V 3 C 0,2.170313 0.6703125,1.5 1.5,1.5 h 21 C 23.329687,1.5 24,2.170313 24,3 v 3 c 0,0.829687 -0.670313,1.5 -1.5,1.5 z M 20.25,3.375 c -0.623438,0 -1.125,0.501562 -1.125,1.125 0,0.623438 0.501562,1.125 1.125,1.125 0.623438,0 1.125,-0.501562 1.125,-1.125 0,-0.623438 -0.501562,-1.125 -1.125,-1.125 z m -3,0 c -0.623438,0 -1.125,0.501562 -1.125,1.125 0,0.623438 0.501562,1.125 1.125,1.125 0.623438,0 1.125,-0.501562 1.125,-1.125 0,-0.623438 -0.501562,-1.125 -1.125,-1.125 z M 22.5,15 H 1.5 C 0.6703125,15 0,14.329687 0,13.5 v -3 C 0,9.670313 0.6703125,9 1.5,9 h 21 c 0.829687,0 1.5,0.670313 1.5,1.5 v 3 c 0,0.829687 -0.670313,1.5 -1.5,1.5 z m -2.25,-4.125 c -0.623438,0 -1.125,0.501562 -1.125,1.125 0,0.623438 0.501562,1.125 1.125,1.125 0.623438,0 1.125,-0.501562 1.125,-1.125 0,-0.623438 -0.501562,-1.125 -1.125,-1.125 z m -3,0 c -0.623438,0 -1.125,0.501562 -1.125,1.125 0,0.623438 0.501562,1.125 1.125,1.125 0.623438,0 1.125,-0.501562 1.125,-1.125 0,-0.623438 -0.501562,-1.125 -1.125,-1.125 z M 22.5,22.5 H 1.5 C 0.6703125,22.5 0,21.829687 0,21 v -3 c 0,-0.829687 0.6703125,-1.5 1.5,-1.5 h 21 c 0.829687,0 1.5,0.670313 1.5,1.5 v 3 c 0,0.829687 -0.670313,1.5 -1.5,1.5 z m -2.25,-4.125 c -0.623438,0 -1.125,0.501562 -1.125,1.125 0,0.623438 0.501562,1.125 1.125,1.125 0.623438,0 1.125,-0.501562 1.125,-1.125 0,-0.623438 -0.501562,-1.125 -1.125,-1.125 z m -3,0 c -0.623438,0 -1.125,0.501562 -1.125,1.125 0,0.623438 0.501562,1.125 1.125,1.125 0.623438,0 1.125,-0.501562 1.125,-1.125 0,-0.623438 -0.501562,-1.125 -1.125,-1.125 z"
   class="st0" />
</svg>
