<?xml version="1.0" encoding="UTF-8" standalone="no"?>
<svg
   xmlns:dc="http://purl.org/dc/elements/1.1/"
   xmlns:cc="http://creativecommons.org/ns#"
   xmlns:rdf="http://www.w3.org/1999/02/22-rdf-syntax-ns#"
   xmlns:svg="http://www.w3.org/2000/svg"
   xmlns="http://www.w3.org/2000/svg"
   xmlns:sodipodi="http://sodipodi.sourceforge.net/DTD/sodipodi-0.dtd"
   xmlns:inkscape="http://www.inkscape.org/namespaces/inkscape"
   inkscape:version="1.0 (4035a4fb49, 2020-05-01)"
   height="24"
   width="24"
   sodipodi:docname="server-offline.svg"
   id="svg10"
   version="1.1"
   viewBox="0 0 24 24">
  <metadata
     id="metadata14">
    <rdf:RDF>
      <cc:Work
         rdf:about="">
        <dc:format>image/svg+xml</dc:format>
        <dc:type
           rdf:resource="http://purl.org/dc/dcmitype/StillImage" />
        <dc:title>server-offline</dc:title>
      </cc:Work>
    </rdf:RDF>
  </metadata>
  <sodipodi:namedview
     inkscape:current-layer="svg10"
     inkscape:window-maximized="1"
     inkscape:window-y="30"
     inkscape:window-x="0"
     inkscape:cy="13.247483"
     inkscape:cx="13.752195"
     inkscape:zoom="28.2506"
     showgrid="false"
     id="namedview12"
     inkscape:window-height="1020"
     inkscape:window-width="1680"
     inkscape:pageshadow="2"
     inkscape:pageopacity="0"
     guidetolerance="10"
     gridtolerance="10"
     objecttolerance="10"
     borderopacity="1"
     bordercolor="#666666"
     pagecolor="#ffffff" />
  <defs
     id="defs4">
    <style
       id="style2">.a{fill:#606060;}</style>
  </defs>
  <title
     id="title6">server-offline</title>
  <path
     id="path8"
     d="M 22.5,7.5 H 1.5 A 1.5,1.5 0 0 1 0,6 V 3 A 1.5,1.5 0 0 1 1.5,1.5 h 21 A 1.5,1.5 0 0 1 24,3 V 6 A 1.5,1.5 0 0 1 22.5,7.5 Z M 20.2,3.4 a 1.1,1.1 0 1 0 0,2.2 1.1,1.1 0 0 0 1.2,-1.1 1.1,1.1 0 0 0 -1.2,-1.1 z m -2.9,0 a 1.1,1.1 0 0 0 -1.2,1.1 1.1,1.1 0 0 0 1.2,1.1 1.1,1.1 0 1 0 0,-2.2 z M 22.5,15 H 1.5 A 1.5,1.5 0 0 1 0,13.5 v -3 A 1.5,1.5 0 0 1 1.5,9 h 21 a 1.5,1.5 0 0 1 1.5,1.5 v 3 A 1.5,1.5 0 0 1 22.5,15 Z m -2.3,-4.1 a 1.1,1.1 0 1 0 0,2.2 1.1,1.1 0 1 0 0,-2.2 z m -2.9,0 a 1.1,1.1 0 1 0 0,2.2 1.1,1.1 0 0 0 0,-2.2 z m 5.2,11.6 H 1.5 A 1.5,1.5 0 0 1 0,21 v -3 a 1.5,1.5 0 0 1 1.5,-1.5 h 21 A 1.5,1.5 0 0 1 24,18 v 3 a 1.5,1.5 0 0 1 -1.5,1.5 z m -2.3,-4.1 a 1.1,1.1 0 1 0 0,2.2 1.1,1.1 0 1 0 0,-2.2 z m -2.9,0 a 1.1,1.1 0 1 0 0,2.2 1.1,1.1 0 0 0 0,-2.2 z"
     class="a" />
</svg>
