<?xml version="1.0" encoding="UTF-8" standalone="no"?>
<svg
   xmlns:dc="http://purl.org/dc/elements/1.1/"
   xmlns:cc="http://creativecommons.org/ns#"
   xmlns:rdf="http://www.w3.org/1999/02/22-rdf-syntax-ns#"
   xmlns:svg="http://www.w3.org/2000/svg"
   xmlns="http://www.w3.org/2000/svg"
   xmlns:sodipodi="http://sodipodi.sourceforge.net/DTD/sodipodi-0.dtd"
   xmlns:inkscape="http://www.inkscape.org/namespaces/inkscape"
   sodipodi:docname="net.olback.BariumAttention.svg"
   inkscape:version="1.0 (4035a4fb49, 2020-05-01)"
   id="svg8"
   version="1.1"
   viewBox="0 0 135.46666 135.46667"
   height="512"
   width="512">
  <defs
     id="defs2" />
  <sodipodi:namedview
     inkscape:document-rotation="0"
     inkscape:window-maximized="1"
     inkscape:window-y="34"
     inkscape:window-x="1680"
     inkscape:window-height="1016"
     inkscape:window-width="1920"
     inkscape:guide-bbox="true"
     showguides="true"
     units="px"
     showgrid="false"
     inkscape:current-layer="layer1"
     inkscape:document-units="mm"
     inkscape:cy="302.41481"
     inkscape:cx="276.58055"
     inkscape:zoom="1"
     inkscape:pageshadow="2"
     inkscape:pageopacity="0.0"
     borderopacity="1.0"
     bordercolor="#666666"
     pagecolor="#ffffff"
     id="base">
    <sodipodi:guide
       inkscape:locked="false"
       id="guide3743"
       orientation="0,1"
       position="14.741071,144.38691" />
  </sodipodi:namedview>
  <metadata
     id="metadata5">
    <rdf:RDF>
      <cc:Work
         rdf:about="">
        <dc:format>image/svg+xml</dc:format>
        <dc:type
           rdf:resource="http://purl.org/dc/dcmitype/StillImage" />
        <dc:title />
      </cc:Work>
    </rdf:RDF>
  </metadata>
  <g
     inkscape:groupmode="layer"
     id="layer4"
     inkscape:label="Layer 2">
    <rect
       transform="translate(0,-161.53332)"
       style="fill:#ff8400;fill-opacity:1;stroke-width:0.264583"
       id="rect925"
       width="77.663849"
       height="77.173553"
       x="30.091461"
       y="198.74532" />
  </g>
  <g
     transform="translate(0,-161.53332)"
     id="layer1"
     inkscape:groupmode="layer"
     inkscape:label="Layer 1">
    <path
       id="path62"
       d="M 62.801315,296.88526 C 42.6275,294.85744 25.539969,283.44393 15.807498,265.49603 9.4333693,253.74133 6.9404509,239.04166 9.399719,227.71208 c 3.31619,-15.27732 14.453085,-34.54784 30.758679,-53.22272 3.019096,-3.45779 12.388988,-12.95943 12.776394,-12.95604 0.149116,0.001 2.772854,2.51565 5.830534,5.58746 7.36061,7.39462 12.201192,12.87493 17.521934,19.83763 1.256044,1.64366 2.455579,3.19388 2.665637,3.44493 l 0.381924,0.45646 2.366868,-2.78785 c 2.969637,-3.49784 8.30504,-9.16653 10.734137,-11.40468 l 1.849874,-1.70445 2.93834,3.00168 c 13.8466,14.14516 25.89828,35.49799 29.24342,51.81266 0.51064,2.49048 0.53853,2.87437 0.53179,7.32164 -0.007,4.71433 -0.19176,6.78883 -0.95232,10.70087 -2.95053,15.17647 -11.27324,28.54188 -23.43804,37.63905 -8.080456,6.04279 -17.335775,9.80411 -27.510995,11.18034 -2.565927,0.34706 -9.910466,0.50605 -12.29658,0.2662 z M 73.97149,272.77339 c 13.249835,-2.20824 23.32926,-10.36161 27.12176,-21.9391 1.19303,-3.64201 1.44604,-5.22948 1.54897,-9.71879 0.12335,-5.37958 -0.35563,-8.46057 -2.03998,-13.12182 -0.606034,-1.67715 -2.70157,-5.88586 -4.104791,-8.24417 l -0.828178,-1.39186 -1.552804,1.67347 c -0.854042,0.92041 -1.554267,1.77906 -1.556057,1.90813 -0.0019,0.12907 -0.07806,0.23467 -0.1695,0.23467 -0.09144,0 -0.729896,0.65472 -1.418795,1.45494 -0.688904,0.80022 -1.522254,1.76689 -1.851893,2.14816 -0.329637,0.38127 -0.916142,1.00732 -1.303345,1.39122 -0.387202,0.38391 -0.704002,0.76049 -0.704002,0.83683 0,0.0764 -0.305049,0.46406 -0.677888,0.86158 -1.558218,1.66141 -1.994111,2.14996 -3.994906,4.47747 -2.532333,2.94584 -3.074024,3.50492 -3.223919,3.32741 -0.06313,-0.0747 -1.282247,-1.63545 -2.709153,-3.46822 -1.426905,-1.83275 -2.665612,-3.33228 -2.752678,-3.33228 -0.08707,0 -0.137188,-0.0644 -0.111373,-0.14321 0.06136,-0.18725 -1.743532,-2.48507 -1.951969,-2.48507 -0.08802,0 -0.138922,-0.0644 -0.113107,-0.14322 0.06136,-0.18724 -1.743531,-2.48506 -1.95197,-2.48506 -0.08802,0 -0.138918,-0.0644 -0.113103,-0.14322 0.06136,-0.18725 -1.743532,-2.48506 -1.95197,-2.48506 -0.08802,0 -0.138921,-0.0644 -0.113107,-0.14323 0.06136,-0.18724 -1.743531,-2.48505 -1.951969,-2.48505 -0.08802,0 -0.138919,-0.0644 -0.113104,-0.14323 0.06136,-0.18724 -1.743531,-2.48507 -1.951969,-2.48507 -0.08802,0 -0.138919,-0.0653 -0.113107,-0.14508 0.06048,-0.18698 -2.497203,-3.42187 -2.705514,-3.42187 -0.08659,0 -0.136327,-0.0633 -0.110536,-0.1408 0.06985,-0.20973 -2.485564,-3.42616 -2.722041,-3.42616 -0.111893,0 -0.151099,-0.0524 -0.08713,-0.11631 0.118608,-0.1186 -5.392779,-7.06245 -5.691757,-7.1711 -0.326467,-0.11864 -8.161914,9.62488 -11.406597,14.18431 -4.630914,6.50736 -7.353109,12.02925 -8.400047,17.03925 -0.425527,2.03631 -0.562292,6.13833 -0.291735,8.75017 0.629424,6.07628 2.417152,11.19258 5.60144,16.03078 1.776506,2.69923 5.788955,6.66816 8.683181,8.58902 4.96045,3.29218 11.057889,5.44401 17.365401,6.1284 2.317084,0.2514 8.246747,0.10524 10.419237,-0.25683 z"
       style="fill:#ffa628;fill-opacity:1;stroke-width:0.187734" />
  </g>
</svg>
