<?xml version="1.0" encoding="UTF-8" standalone="no"?>
<svg
   xmlns:dc="http://purl.org/dc/elements/1.1/"
   xmlns:cc="http://creativecommons.org/ns#"
   xmlns:rdf="http://www.w3.org/1999/02/22-rdf-syntax-ns#"
   xmlns:svg="http://www.w3.org/2000/svg"
   xmlns="http://www.w3.org/2000/svg"
   xmlns:sodipodi="http://sodipodi.sourceforge.net/DTD/sodipodi-0.dtd"
   xmlns:inkscape="http://www.inkscape.org/namespaces/inkscape"
   sodipodi:docname="net.olback.BariumAttention256.svg"
   inkscape:version="1.0 (4035a4fb49, 2020-05-01)"
   id="svg8"
   version="1.1"
   viewBox="0 0 67.73333 67.733335"
   height="256"
   width="256">
  <defs
     id="defs2" />
  <sodipodi:namedview
     inkscape:document-rotation="0"
     inkscape:window-maximized="1"
     inkscape:window-y="34"
     inkscape:window-x="1680"
     inkscape:window-height="1016"
     inkscape:window-width="1920"
     inkscape:guide-bbox="true"
     showguides="true"
     units="px"
     showgrid="false"
     inkscape:current-layer="layer1"
     inkscape:document-units="mm"
     inkscape:cy="267.47517"
     inkscape:cx="277.41574"
     inkscape:zoom="1.4142136"
     inkscape:pageshadow="2"
     inkscape:pageopacity="0.0"
     borderopacity="1.0"
     bordercolor="#666666"
     pagecolor="#ffffff"
     id="base">
    <sodipodi:guide
       inkscape:locked="false"
       id="guide3743"
       orientation="0,1"
       position="14.741071,144.38691" />
  </sodipodi:namedview>
  <metadata
     id="metadata5">
    <rdf:RDF>
      <cc:Work
         rdf:about="">
        <dc:format>image/svg+xml</dc:format>
        <dc:type
           rdf:resource="http://purl.org/dc/dcmitype/StillImage" />
        <dc:title></dc:title>
      </cc:Work>
    </rdf:RDF>
  </metadata>
  <g
     inkscape:groupmode="layer"
     id="layer4"
     inkscape:label="Layer 2">
    <rect
       style="fill:#ff8400;fill-opacity:1;stroke-width:0.137374"
       id="rect925"
       width="38.289085"
       height="42.19873"
       x="14.891147"
       y="16.882591" />
  </g>
  <g
     transform="translate(0,-161.53332)"
     id="layer1"
     inkscape:groupmode="layer"
     inkscape:label="Layer 1">
    <path
       id="path62"
       d="M 31.400658,229.20929 C 21.31375,228.19538 12.769985,222.48862 7.9037489,213.51468 4.7166846,207.63733 3.4702255,200.28749 4.6998594,194.6227 c 1.6580955,-7.63866 7.2265426,-17.27392 15.3793396,-26.61136 1.509548,-1.72889 6.194494,-6.47971 6.388198,-6.47802 0.07456,5e-4 1.386426,1.25783 2.915267,2.79373 3.680304,3.69731 6.100596,6.43747 8.760967,9.91882 0.628021,0.82183 1.227789,1.59693 1.332817,1.72246 l 0.190963,0.22823 1.183434,-1.39393 c 1.484818,-1.74891 4.15252,-4.58326 5.367068,-5.70234 l 0.924937,-0.85222 1.46917,1.50084 c 6.9233,7.07258 12.949138,17.74899 14.621711,25.90633 0.255323,1.24524 0.269263,1.43718 0.265892,3.66082 -0.0035,2.35716 -0.09588,3.39441 -0.476156,5.35043 -1.475266,7.58824 -5.636623,14.27095 -11.719024,18.81953 -4.040225,3.0214 -8.667885,4.90205 -13.755495,5.59017 -1.282964,0.17352 -4.955233,0.25302 -6.14829,0.1331 z m 5.585087,-12.05594 c 6.624918,-1.10411 11.66463,-5.1808 13.560876,-10.96955 0.596518,-1.821 0.723023,-2.61474 0.77449,-4.85939 0.06167,-2.68979 -0.177817,-4.23029 -1.019993,-6.56091 -0.303014,-0.83857 -1.350783,-2.94294 -2.052393,-4.12208 l -0.41409,-0.69593 -0.776401,0.83673 c -0.427021,0.4602 -0.777133,0.88953 -0.778029,0.95406 -9.49e-4,0.0645 -0.03903,0.11734 -0.08475,0.11734 -0.04572,0 -0.364948,0.32736 -0.709397,0.72747 -0.344452,0.40011 -0.761127,0.88344 -0.925947,1.07408 -0.164819,0.19063 -0.458071,0.50366 -0.651672,0.69561 -0.193601,0.19196 -0.352001,0.38024 -0.352001,0.41841 0,0.0382 -0.152525,0.23203 -0.338944,0.43079 -0.779109,0.83071 -0.997056,1.07498 -1.997453,2.23874 -1.266167,1.47292 -1.537013,1.75246 -1.611959,1.66371 -0.03156,-0.0374 -0.641124,-0.81773 -1.354577,-1.73411 -0.713453,-0.91638 -1.332806,-1.66614 -1.37634,-1.66614 -0.04353,0 -0.06859,-0.0322 -0.05569,-0.0716 0.03068,-0.0936 -0.871766,-1.24254 -0.975985,-1.24254 -0.04401,0 -0.06946,-0.0322 -0.05655,-0.0716 0.03068,-0.0936 -0.871766,-1.24254 -0.975985,-1.24254 -0.04401,0 -0.06946,-0.0322 -0.05655,-0.0716 0.03068,-0.0936 -0.871765,-1.24253 -0.975984,-1.24253 -0.04401,0 -0.06946,-0.0322 -0.05655,-0.0716 0.03068,-0.0936 -0.871765,-1.24253 -0.975984,-1.24253 -0.04401,0 -0.06946,-0.0322 -0.05655,-0.0716 0.03068,-0.0936 -0.871766,-1.24253 -0.975985,-1.24253 -0.04401,0 -0.06946,-0.0327 -0.05655,-0.0726 0.03024,-0.0935 -1.248602,-1.71093 -1.352757,-1.71093 -0.0433,0 -0.06816,-0.0317 -0.05527,-0.0704 0.03492,-0.10486 -1.242782,-1.71308 -1.361021,-1.71308 -0.05595,0 -0.07555,-0.0262 -0.04356,-0.0582 0.0593,-0.0593 -2.696389,-3.53122 -2.845878,-3.58555 -0.163234,-0.0593 -4.080957,4.81244 -5.703299,7.09216 -2.315457,3.25368 -3.676554,6.01462 -4.200024,8.51962 -0.212763,1.01816 -0.281145,3.06917 -0.145867,4.37509 0.314712,3.03814 1.208576,5.59629 2.80072,8.01539 0.888253,1.34961 2.894478,3.33408 4.34159,4.2945 2.480226,1.6461 5.528945,2.72202 8.682701,3.0642 1.158542,0.12571 4.123374,0.0526 5.209619,-0.12841 z"
       style="fill:#ffa628;fill-opacity:1;stroke-width:0.093867" />
  </g>
</svg>
