<?xml version="1.0" encoding="UTF-8" standalone="no"?>
<svg
   xmlns:dc="http://purl.org/dc/elements/1.1/"
   xmlns:cc="http://creativecommons.org/ns#"
   xmlns:rdf="http://www.w3.org/1999/02/22-rdf-syntax-ns#"
   xmlns:svg="http://www.w3.org/2000/svg"
   xmlns="http://www.w3.org/2000/svg"
   xmlns:sodipodi="http://sodipodi.sourceforge.net/DTD/sodipodi-0.dtd"
   xmlns:inkscape="http://www.inkscape.org/namespaces/inkscape"
   width="128"
   height="128"
   viewBox="0 0 33.866665 33.866667"
   version="1.1"
   id="svg8"
   inkscape:version="1.0 (4035a4fb49, 2020-05-01)"
   sodipodi:docname="net.olback.BariumAttention128.svg">
  <defs
     id="defs2" />
  <sodipodi:namedview
     id="base"
     pagecolor="#ffffff"
     bordercolor="#666666"
     borderopacity="1.0"
     inkscape:pageopacity="0.0"
     inkscape:pageshadow="2"
     inkscape:zoom="2"
     inkscape:cx="82.284537"
     inkscape:cy="107.25832"
     inkscape:document-units="mm"
     inkscape:current-layer="layer4"
     showgrid="false"
     units="px"
     showguides="true"
     inkscape:guide-bbox="true"
     inkscape:window-width="1920"
     inkscape:window-height="1016"
     inkscape:window-x="1680"
     inkscape:window-y="34"
     inkscape:window-maximized="1"
     inkscape:document-rotation="0">
    <sodipodi:guide
       position="14.741071,144.38691"
       orientation="0,1"
       id="guide3743"
       inkscape:locked="false" />
  </sodipodi:namedview>
  <metadata
     id="metadata5">
    <rdf:RDF>
      <cc:Work
         rdf:about="">
        <dc:format>image/svg+xml</dc:format>
        <dc:type
           rdf:resource="http://purl.org/dc/dcmitype/StillImage" />
        <dc:title></dc:title>
      </cc:Work>
    </rdf:RDF>
  </metadata>
  <g
     inkscape:label="Layer 2"
     id="layer4"
     inkscape:groupmode="layer">
    <rect
       y="8.8687325"
       x="6.7322359"
       height="19.520479"
       width="20.524323"
       id="rect925"
       style="fill:#ff8400;fill-opacity:1;stroke-width:0.0684066" />
  </g>
  <g
     inkscape:label="Layer 1"
     inkscape:groupmode="layer"
     id="layer1"
     transform="translate(0,-161.53332)">
    <path
       style="fill:#ffa628;fill-opacity:1;stroke-width:0.0469335"
       d="m 15.700328,195.3713 c -5.043453,-0.50695 -9.3153359,-3.36033 -11.7484535,-7.8473 -1.5935322,-2.93868 -2.2167618,-6.6136 -1.6019447,-9.44599 0.8290474,-3.81933 3.6132711,-8.63696 7.6896692,-13.30568 0.754774,-0.86445 3.097247,-3.23986 3.194099,-3.23901 0.03728,2.5e-4 0.693213,0.62891 1.457633,1.39686 1.840153,1.84866 3.050298,3.21874 4.380483,4.95941 0.314011,0.41092 0.613895,0.79847 0.66641,0.86123 l 0.09548,0.11412 0.591717,-0.69696 c 0.742409,-0.87446 2.07626,-2.29164 2.683534,-2.85117 l 0.462468,-0.42612 0.734585,0.75042 c 3.46165,3.53629 6.47457,8.8745 7.310855,12.95317 0.12766,0.62262 0.134633,0.71859 0.132948,1.83041 -0.0017,1.17858 -0.04794,1.69721 -0.23808,2.67522 -0.737633,3.79411 -2.81831,7.13547 -5.85951,9.40976 -2.020114,1.5107 -4.333944,2.45103 -6.877749,2.79508 -0.641481,0.0868 -2.477616,0.12652 -3.074145,0.0665 z m 2.792544,-6.02796 c 3.312459,-0.55206 5.832315,-2.59041 6.78044,-5.48478 0.298257,-0.9105 0.36151,-1.30737 0.387242,-2.4297 0.03084,-1.34489 -0.08891,-2.11514 -0.509995,-3.28045 -0.151508,-0.41929 -0.675392,-1.47147 -1.026197,-2.06104 l -0.207045,-0.34797 -0.388201,0.41837 c -0.21351,0.2301 -0.388567,0.44476 -0.389014,0.47703 -4.75e-4,0.0323 -0.01951,0.0587 -0.04237,0.0587 -0.02286,0 -0.182474,0.16368 -0.354699,0.36373 -0.172226,0.20006 -0.380563,0.44173 -0.462973,0.53704 -0.08241,0.0953 -0.229036,0.25183 -0.325836,0.34781 -0.0968,0.096 -0.176001,0.19012 -0.176001,0.20921 0,0.0191 -0.07626,0.11601 -0.169472,0.21539 -0.389554,0.41535 -0.498528,0.53749 -0.998726,1.11937 -0.633084,0.73646 -0.768506,0.87623 -0.80598,0.83185 -0.01578,-0.0187 -0.320562,-0.40886 -0.677288,-0.86705 -0.356727,-0.45819 -0.666403,-0.83307 -0.68817,-0.83307 -0.02177,0 -0.0343,-0.0161 -0.02784,-0.0358 0.01534,-0.0468 -0.435883,-0.62126 -0.487992,-0.62126 -0.02201,0 -0.03473,-0.0161 -0.02828,-0.0358 0.01534,-0.0468 -0.435883,-0.62126 -0.487992,-0.62126 -0.02201,0 -0.03473,-0.0161 -0.02828,-0.0358 0.01534,-0.0468 -0.435883,-0.62126 -0.487993,-0.62126 -0.02201,0 -0.03473,-0.0161 -0.02828,-0.0358 0.01534,-0.0468 -0.435883,-0.62126 -0.487993,-0.62126 -0.02201,0 -0.03473,-0.0161 -0.02828,-0.0358 0.01534,-0.0468 -0.435882,-0.62127 -0.487992,-0.62127 -0.02201,0 -0.03473,-0.0163 -0.02828,-0.0363 0.01512,-0.0467 -0.6243,-0.85547 -0.676378,-0.85547 -0.02165,0 -0.03408,-0.0158 -0.02763,-0.0352 0.01746,-0.0524 -0.621391,-0.85654 -0.68051,-0.85654 -0.02797,0 -0.03777,-0.0131 -0.02178,-0.0291 0.02965,-0.0296 -1.348195,-1.76562 -1.422939,-1.79278 -0.08162,-0.0297 -2.040479,2.40622 -2.851649,3.54608 -1.1577287,1.62684 -1.8382774,3.00731 -2.1000119,4.25981 -0.1063818,0.50908 -0.140573,1.53458 -0.072934,2.18754 0.157356,1.51907 0.604288,2.79815 1.40036,4.0077 0.4441265,0.67481 1.4472389,1.66704 2.1707949,2.14725 1.240113,0.82305 2.764473,1.36101 4.341351,1.5321 0.579271,0.0628 2.061686,0.0263 2.604809,-0.0642 z"
       id="path62" />
  </g>
</svg>
