<?xml version="1.0" encoding="UTF-8" standalone="no"?>
<svg
   xmlns:dc="http://purl.org/dc/elements/1.1/"
   xmlns:cc="http://creativecommons.org/ns#"
   xmlns:rdf="http://www.w3.org/1999/02/22-rdf-syntax-ns#"
   xmlns:svg="http://www.w3.org/2000/svg"
   xmlns="http://www.w3.org/2000/svg"
   xmlns:sodipodi="http://sodipodi.sourceforge.net/DTD/sodipodi-0.dtd"
   xmlns:inkscape="http://www.inkscape.org/namespaces/inkscape"
   width="512"
   height="512"
   viewBox="0 0 135.46666 135.46667"
   version="1.1"
   id="svg8"
   inkscape:version="1.0 (4035a4fb49, 2020-05-01)"
   sodipodi:docname="net.olback.BariumAttention.svg">
  <defs
     id="defs2" />
  <sodipodi:namedview
     id="base"
     pagecolor="#ffffff"
     bordercolor="#666666"
     borderopacity="1.0"
     inkscape:pageopacity="0.0"
     inkscape:pageshadow="2"
     inkscape:zoom="2"
     inkscape:cx="228.96659"
     inkscape:cy="214.32232"
     inkscape:document-units="mm"
     inkscape:current-layer="layer1"
     showgrid="false"
     units="px"
     showguides="true"
     inkscape:guide-bbox="true"
     inkscape:window-width="1680"
     inkscape:window-height="1020"
     inkscape:window-x="0"
     inkscape:window-y="30"
     inkscape:window-maximized="1"
     inkscape:document-rotation="0">
    <sodipodi:guide
       position="14.741071,144.38691"
       orientation="0,1"
       id="guide3743"
       inkscape:locked="false" />
  </sodipodi:namedview>
  <metadata
     id="metadata5">
    <rdf:RDF>
      <cc:Work
         rdf:about="">
        <dc:format>image/svg+xml</dc:format>
        <dc:type
           rdf:resource="http://purl.org/dc/dcmitype/StillImage" />
        <dc:title />
      </cc:Work>
    </rdf:RDF>
  </metadata>
  <g
     inkscape:label="Layer 2"
     id="layer4"
     inkscape:groupmode="layer">
    <rect
       y="198.74532"
       x="30.091461"
       height="77.173553"
       width="77.663849"
       id="rect925"
       style="fill:#ff8400;fill-opacity:1;stroke-width:0.264583"
       transform="translate(0,-161.53332)" />
  </g>
  <g
     inkscape:label="Layer 1"
     inkscape:groupmode="layer"
     id="layer1"
     transform="translate(0,-161.53332)">
    <path
       transform="matrix(0.26458333,0,0,0.26458333,0,161.53332)"
       style="fill:#ffa628;stroke-width:0.707107;fill-opacity:1"
       d="M 237.21916,510.91909 C 161.23379,503.28124 96.873014,460.29195 60.215325,392.69073 36.206949,348.41637 26.817286,293.04965 36.080204,250.37651 48.570749,192.83407 90.518247,120.25114 151.93383,49.911736 163.30536,36.887902 198.59738,1.0997061 200.05656,1.1124499 c 0.56165,0.00491 10.44405,9.4753101 21.96091,21.0453451 27.72399,27.852008 45.95621,48.493748 65.99697,74.718948 4.73093,6.190867 9.24902,12.029797 10.04021,12.975407 l 1.43853,1.71928 8.91489,-10.50053 c 11.18524,-13.174682 31.28122,-34.525982 40.4305,-42.956021 l 6.96761,-6.419876 11.06736,11.305959 c 52.15368,53.278078 97.54677,133.704078 110.14635,195.153718 1.92336,9.38045 2.02838,10.82636 2.00301,27.57717 -0.0269,17.75661 -0.72228,25.57025 -3.58695,40.30508 -11.11326,57.16256 -42.46107,107.50374 -88.2802,141.76848 -30.4353,22.76031 -65.29578,36.9274 -103.6211,42.11103 -9.66465,1.30717 -37.32811,1.90605 -46.31549,1.00265 z m 42.07285,-90.81799 c 49.90596,-8.31741 87.87046,-39.02727 102.15503,-82.63419 4.4936,-13.71774 5.44657,-19.69697 5.83428,-36.60608 0.46459,-20.26235 -1.33952,-31.86699 -7.68366,-49.42366 -2.28266,-6.31703 -10.17557,-22.16929 -15.46085,-31.05188 l -3.11936,-5.24248 -5.84869,6.30314 c -3.21678,3.46673 -5.8542,6.70089 -5.86094,7.18702 -0.007,0.48614 -0.29402,0.88389 -0.63843,0.88389 -0.3444,0 -2.74918,2.46603 -5.34394,5.48008 -2.59478,3.01404 -5.73362,6.65503 -6.97522,8.09109 -1.24159,1.43605 -3.45068,3.7941 -4.90909,5.2401 -1.45841,1.44601 -2.65165,2.86436 -2.65165,3.15191 0,0.28754 -1.14898,1.74788 -2.55329,3.24517 -5.86908,6.25774 -7.51089,8.09787 -15.04695,16.8645 -9.53812,11.09561 -11.57842,13.20141 -12.143,12.5328 -0.23778,-0.28159 -4.82963,-6.16 -10.20412,-13.06313 -5.37449,-6.90313 -10.04012,-12.55114 -10.36806,-12.55114 -0.32795,0 -0.51672,-0.24275 -0.41949,-0.53943 0.23111,-0.70526 -6.56707,-9.36007 -7.35216,-9.36007 -0.33154,0 -0.52325,-0.24274 -0.42602,-0.53943 0.23112,-0.70525 -6.56707,-9.36006 -7.35216,-9.36006 -0.33153,0 -0.52324,-0.24275 -0.42601,-0.53943 0.23111,-0.70526 -6.56707,-9.36007 -7.35216,-9.36007 -0.33153,0 -0.52325,-0.24274 -0.42602,-0.53943 0.23112,-0.70525 -6.56707,-9.36006 -7.35216,-9.36006 -0.33153,0 -0.52324,-0.24275 -0.42601,-0.53943 0.23112,-0.70526 -6.56707,-9.36007 -7.35216,-9.36007 -0.33153,0 -0.52324,-0.24592 -0.42602,-0.54649 0.2278,-0.70423 -9.4058,-12.88854 -10.19041,-12.88854 -0.32613,0 -0.51348,-0.23865 -0.41634,-0.53033 0.2631,-0.78995 -9.36196,-12.9047 -10.25266,-12.9047 -0.42145,0 -0.56912,-0.19714 -0.32816,-0.43811 0.44674,-0.44673 -20.31209,-26.60091 -21.4382,-27.01015 -1.22965,-0.44684 -30.74213,36.25238 -42.96334,53.42558 -17.4425,24.51015 -27.69574,45.30848 -31.63907,64.1788 -1.60276,7.66979 -2.11789,23.12017 -1.09883,32.95773 2.37075,22.88646 9.10429,42.15715 21.09802,60.38036 6.69127,10.16669 21.8043,25.11577 32.7055,32.35074 18.68371,12.40009 41.64992,20.50505 65.40738,23.08278 8.72738,0.94694 31.06166,0.39642 39.24442,-0.96733 z"
       id="path62" />
  </g>
</svg>
