<?xml version="1.0" encoding="UTF-8" standalone="no"?>
<svg
   xmlns:dc="http://purl.org/dc/elements/1.1/"
   xmlns:cc="http://creativecommons.org/ns#"
   xmlns:rdf="http://www.w3.org/1999/02/22-rdf-syntax-ns#"
   xmlns:svg="http://www.w3.org/2000/svg"
   xmlns="http://www.w3.org/2000/svg"
   xmlns:sodipodi="http://sodipodi.sourceforge.net/DTD/sodipodi-0.dtd"
   xmlns:inkscape="http://www.inkscape.org/namespaces/inkscape"
   width="64"
   height="64"
   version="1.1"
   id="svg4"
   sodipodi:docname="process-working-symbolic-64.svg"
   inkscape:version="1.0 (4035a4fb49, 2020-05-01)">
  <metadata
     id="metadata10">
    <rdf:RDF>
      <cc:Work
         rdf:about="">
        <dc:format>image/svg+xml</dc:format>
        <dc:type
           rdf:resource="http://purl.org/dc/dcmitype/StillImage" />
        <dc:title />
      </cc:Work>
    </rdf:RDF>
  </metadata>
  <defs
     id="defs8" />
  <sodipodi:namedview
     inkscape:document-rotation="0"
     pagecolor="#ffffff"
     bordercolor="#666666"
     borderopacity="1"
     objecttolerance="10"
     gridtolerance="10"
     guidetolerance="10"
     inkscape:pageopacity="0"
     inkscape:pageshadow="2"
     inkscape:window-width="1920"
     inkscape:window-height="1016"
     id="namedview6"
     showgrid="false"
     inkscape:zoom="9.269728"
     inkscape:cx="3.6071747"
     inkscape:cy="37.921828"
     inkscape:window-x="1680"
     inkscape:window-y="34"
     inkscape:window-maximized="1"
     inkscape:current-layer="svg4" />
  <path
     d="M 32.031123,6.9114165e-6 A 6.811525,6.7997921 0 0 0 30.783421,0.11533586 C 16.920073,0.85344086 4.7804015,10.365769 0.9726019,23.776213 A 32.948557,32.891803 0 0 0 15.95426,59.887999 32.948557,32.891803 0 0 0 54.771635,54.790461 32.948557,32.891803 0 0 0 59.882589,16.039951 C 66.84661,28.610802 64.65158,44.466218 54.637622,54.652066 44.341775,64.561126 28.509832,66.54017 16.143726,59.565077 4.045644,52.294744 -1.9433223,37.744849 1.4485768,24.172945 -1.8231733,37.772528 4.3275321,52.184028 16.333191,59.237543 28.597634,66.023496 44.180037,63.873766 54.106193,54.121553 63.782811,44.120231 65.723679,28.620027 58.89829,16.602756 65.612773,28.679998 63.482438,44.078713 53.833548,53.853991 43.958222,63.389384 28.58377,65.31307 16.712124,58.582476 5.0761529,51.61661 -0.73721109,37.491125 2.5530235,24.458961 -0.61244096,37.523417 5.3441776,51.505894 16.892346,58.259554 c 11.769983,6.536842 26.899517,4.44247 36.414395,-4.936076 9.306928,-9.586139 11.1831,-24.634253 4.607252,-36.153304 6.469562,11.579022 4.394681,26.525646 -4.879899,35.881127 C 43.570049,62.222256 28.653087,64.081357 17.28052,57.599873 6.1112829,50.943089 0.47352137,37.228176 3.6528492,24.740364 0.59367038,37.260468 6.3793077,50.82776 17.460744,57.276953 28.731646,63.564684 43.403689,61.534896 52.498045,52.516175 61.439904,43.349834 63.260624,28.749196 56.934317,17.732979 63.149718,28.81378 61.139532,43.308315 52.230021,52.248612 43.181876,61.050514 28.713161,62.854258 17.839676,56.617271 7.1279284,50.264954 1.6796326,36.979065 4.7526748,25.026379 1.7997816,37.011358 7.4051954,50.149626 18.029141,56.29435 c 10.771822,6.043235 24.990995,4.068804 33.669451,-4.576251 8.57217,-8.75577 10.328194,-22.895093 4.251427,-33.422315 5.970482,10.587194 4.01575,24.625026 -4.524073,33.150139 C 42.798323,59.883385 28.782479,61.622545 18.408072,55.634669 8.1538162,49.591434 2.8811228,36.720729 5.8478793,25.307781 3.0012719,36.748408 8.4357043,49.471492 18.60216,55.311748 28.874901,61.105872 42.631962,59.196026 50.894518,50.91541 59.096999,42.579437 60.797569,28.892204 54.9611,18.867816 60.686663,28.956788 58.796626,42.533305 50.621872,50.643234 42.410149,58.716257 28.856416,60.395446 18.981091,54.65668 9.1843253,48.908687 4.0872341,36.467006 6.947705,25.593797 4.2073831,36.499298 9.4615925,48.797971 19.170557,54.329145 c 9.77366,5.549627 23.073231,3.695139 30.915265,-4.216424 7.842034,-7.92079 9.47791,-21.15132 3.895601,-30.677488 5.471402,9.595366 3.64144,22.71518 -4.159004,30.405312 -7.800444,7.70397 -20.896686,9.323188 -30.272931,3.828919 C 10.214834,48.230553 5.2933454,36.20867 8.0475306,25.8752 5.4134944,36.240962 10.496722,48.119838 19.738954,53.346543 c 9.27458,5.30513 22.116661,3.505999 29.547416,-4.036511 7.467723,-7.505606 9.048144,-20.274821 3.710756,-29.30738 5.226482,9.09253 3.451973,21.760256 -3.978781,29.039816 C 41.638423,56.377387 28.999671,57.93202 20.117886,52.686861 11.245343,47.552419 6.4994567,35.950333 9.1519776,26.156602 6.6242268,35.982625 11.52261,47.441703 20.307351,52.363941 c 8.780121,5.056019 21.164711,3.321473 28.174944,-3.856598 7.102656,-7.085809 8.618382,-19.402934 3.530533,-27.937273 4.976942,8.598924 3.267129,20.805333 -3.798558,27.669709 -6.964021,6.965866 -19.145283,8.465142 -27.527988,3.469094 -8.41043,-4.829975 -12.976093,-16.007651 -10.434479,-25.266255 -2.4214649,9.286283 2.301316,20.320951 10.623946,24.93872 8.28104,4.80691 20.20814,3.136947 26.802472,-3.676685 6.732967,-6.670624 8.193239,-18.526434 3.35031,-26.571778 4.732022,8.105315 3.077662,19.859636 -3.618334,26.304215 C 40.862075,54.033903 29.142926,55.473208 21.25468,50.726271 13.30174,46.200764 8.9070581,35.438272 11.342386,26.72402 c -2.3105577,8.746544 2.236621,19.361416 10.10176,23.674717 7.781959,4.562411 19.251569,2.95242 25.434622,-3.49216 6.363277,-6.260053 7.763476,-17.65916 3.165465,-25.20167 4.482482,7.607094 2.892818,18.900098 -3.438111,24.929494 -6.1276,6.227761 -17.39388,7.611707 -24.783045,3.109267 -7.490829,-4.221037 -11.709908,-14.554506 -9.380865,-22.733632 -2.204273,8.211418 2.171924,18.397265 9.56571,22.410712 7.292121,4.308687 18.299619,2.758667 24.066772,-3.321473 5.993587,-5.840256 7.333711,-16.782661 2.985241,-23.826951 4.237563,7.104261 2.703353,17.945176 -3.257887,23.559388 -5.7117,5.863321 -16.520489,7.182684 -23.410573,2.929353 -7.033339,-3.916569 -11.067573,-13.834853 -8.844816,-21.469626 -2.102608,7.667066 2.093365,17.433115 9.034282,21.137479 6.788419,4.059579 17.338426,2.569529 22.680437,-3.136946 5.623898,-5.425071 6.903947,-15.901547 2.805017,-22.443002 4.043476,6.573746 2.666384,16.999479 -2.93903,22.309221 C 39.813082,50.75395 29.364739,52.124057 22.779649,48.092158 15.986608,44.415473 11.952373,34.695554 14.152024,27.300665 15.95426,19.799673 24.304616,13.401225 32.031123,13.599591 v -0.01384 a 6.811525,6.7997921 0 0 0 0.0093,0 6.811525,6.7997921 0 0 0 6.802281,-6.7951785 6.811525,6.7997921 0 0 0 -6.802281,-6.7905659219163 6.811525,6.7997921 0 0 0 -0.0093,3.333328e-7 z"
     style="stroke-width:4.61714;marker:none"
     color="#000000"
     overflow="visible"
     fill="#474747"
     id="path2" />
</svg>
