<?xml version="1.0" encoding="UTF-8" standalone="no"?>
<svg
   xmlns:dc="http://purl.org/dc/elements/1.1/"
   xmlns:cc="http://creativecommons.org/ns#"
   xmlns:rdf="http://www.w3.org/1999/02/22-rdf-syntax-ns#"
   xmlns:svg="http://www.w3.org/2000/svg"
   xmlns="http://www.w3.org/2000/svg"
   xmlns:sodipodi="http://sodipodi.sourceforge.net/DTD/sodipodi-0.dtd"
   xmlns:inkscape="http://www.inkscape.org/namespaces/inkscape"
   inkscape:version="1.0 (4035a4fb49, 2020-05-01)"
   sodipodi:docname="process-working-symbolic-large.svg"
   id="svg4"
   version="1.1"
   height="64"
   width="64">
  <metadata
     id="metadata10">
    <rdf:RDF>
      <cc:Work
         rdf:about="">
        <dc:format>image/svg+xml</dc:format>
        <dc:type
           rdf:resource="http://purl.org/dc/dcmitype/StillImage" />
        <dc:title></dc:title>
      </cc:Work>
    </rdf:RDF>
  </metadata>
  <defs
     id="defs8" />
  <sodipodi:namedview
     inkscape:current-layer="svg4"
     inkscape:window-maximized="1"
     inkscape:window-y="30"
     inkscape:window-x="0"
     inkscape:cy="37.921828"
     inkscape:cx="3.6071747"
     inkscape:zoom="9.269728"
     showgrid="false"
     id="namedview6"
     inkscape:window-height="1020"
     inkscape:window-width="1680"
     inkscape:pageshadow="2"
     inkscape:pageopacity="0"
     guidetolerance="10"
     gridtolerance="10"
     objecttolerance="10"
     borderopacity="1"
     bordercolor="#666666"
     pagecolor="#ffffff" />
  <path
     id="path2"
     fill="#474747"
     overflow="visible"
     color="#000000"
     style="stroke-width:4.32857;marker:none"
     d="m 32.029178,2.0000014 a 6.3858048,6.3748057 0 0 0 -1.16972,0.1081209 C 17.862569,2.8000958 6.4816264,11.717904 2.9118142,24.290197 A 30.889273,30.836068 0 0 0 16.957119,58.144999 30.889273,30.836068 0 0 0 53.348408,53.366057 30.889273,30.836068 0 0 0 58.139928,17.03745 c 6.52877,11.785174 4.470929,26.649628 -4.917157,36.198862 C 43.570415,62.526056 28.727968,64.38141 17.134743,57.84226 5.7927912,51.026322 0.17813518,37.385794 3.3580407,24.662133 0.29077488,37.411743 6.0570613,50.922526 17.312367,57.535197 28.810282,63.897028 43.418785,61.881656 52.724557,52.738956 61.796386,43.362715 63.61595,28.831273 57.217148,17.56508 63.511975,28.887496 61.514786,43.323792 52.468952,52.488116 43.210834,61.427548 28.797285,63.231004 17.667616,56.921071 6.7588933,50.390571 1.3088645,37.147928 4.3934595,24.930273 1.4258365,37.178202 7.0101665,50.286775 17.836575,56.618332 28.870934,62.746622 43.054872,60.783148 51.97507,51.99076 60.700315,43.003754 62.459227,28.896146 56.294369,18.097035 62.359584,28.952369 60.414383,42.96483 51.719464,51.735594 42.846921,60.333365 28.862269,62.076273 18.200488,55.999881 7.7293277,49.759145 2.4439262,36.901413 5.4245461,25.194088 2.5565659,36.931687 7.9806009,49.651024 18.369448,55.697143 c 10.56647,5.894749 24.321511,3.991822 32.84747,-4.463229 8.382993,-8.593446 10.089918,-22.281545 4.159005,-32.60925 5.826938,10.388252 3.942389,23.97688 -4.410278,32.358409 -8.482636,8.251784 -22.047056,9.942794 -32.240949,4.095618 C 8.6824329,49.123394 3.5746555,36.667872 6.4556326,25.462227 3.6872952,36.698146 8.9423707,49.015274 18.90232,54.775953 c 10.098583,5.665533 23.429058,3.814504 31.565111,-4.290236 8.036409,-8.208535 9.682682,-21.464151 3.985712,-31.333423 5.597327,9.925495 3.764766,23.085964 -4.241318,31.078258 -8.088397,7.910122 -21.228251,9.540584 -30.954257,3.92695 C 9.6442027,48.491969 4.7010526,36.425682 7.4823868,25.726042 4.8136923,36.451631 9.9084728,48.379523 19.439525,53.854763 c 9.630695,5.431992 22.52794,3.641511 30.274086,-4.121567 7.689826,-7.814975 9.284111,-20.646757 3.812421,-30.044622 5.367715,9.458412 3.595806,22.186398 -4.068026,29.789457 -7.698491,7.56846 -20.405116,9.1427 -29.663233,3.762606 C 10.610305,47.851893 5.8317819,36.187816 8.5134734,25.994182 5.9444216,36.21809 10.870243,47.748097 19.972397,52.933573 c 9.162807,5.202776 21.631155,3.464193 28.983062,-3.952898 7.351907,-7.425741 8.88554,-19.829364 3.652126,-28.760147 5.129439,8.995656 3.41385,21.295483 -3.899067,28.504982 C 41.395602,55.947983 29.117875,57.466 20.327645,52.315122 11.576407,47.216143 6.9625113,35.945626 9.5445599,26.257997 7.075151,35.9759 11.840677,47.112347 20.50527,52.012384 c 8.694918,4.973559 20.73437,3.286874 27.700702,-3.78423 7.000991,-7.036506 8.482636,-19.007646 3.478834,-27.475671 4.899827,8.524248 3.236225,20.400242 -3.730107,27.22483 -6.918677,6.876487 -18.767507,8.333956 -27.094181,3.416619 -8.318009,-4.81354 -12.7672774,-15.690497 -10.280539,-24.87212 -2.3697664,9.211897 2.222468,19.954784 10.458163,24.569382 8.231363,4.740018 19.841917,3.113881 26.41401,-3.615561 6.65874,-6.642946 8.079733,-18.190252 3.309875,-26.191196 4.665883,8.061492 3.062933,19.505002 -3.561148,25.940355 -6.52877,6.5305 -17.948703,7.936071 -25.807489,3.252276 -7.884779,-4.528102 -12.1650878,-15.007174 -9.782325,-23.687116 -2.270123,8.705891 2.157484,19.050893 9.95995,23.380052 7.763475,4.506478 18.945131,2.940888 25.127318,-3.446893 6.312156,-6.25371 7.681161,-17.368533 3.140915,-24.911044 4.436271,7.598734 2.885309,18.618411 -3.392188,24.660204 -6.138864,6.184513 -17.125567,7.533861 -24.520797,3.083607 -7.455882,-4.242663 -11.575896,-14.3325 -9.292776,-22.502112 -2.166148,8.199886 2.096832,18.151329 9.4704,22.195049 7.295587,4.277261 18.048346,2.767894 23.844959,-3.2739 5.965572,-5.8688 7.278258,-16.555464 2.967623,-23.626568 4.202327,7.131651 2.712017,17.718844 -3.223229,23.371403 -5.744625,5.838526 -16.306763,7.135976 -23.234105,2.914938 -7.022652,-3.957223 -10.978039,-13.644851 -8.794561,-21.312782 -2.066506,7.698205 2.036179,17.247438 8.967853,21.010044 6.836364,4.039395 17.155893,2.586251 22.562599,-3.113881 5.618988,-5.47524 6.875354,-15.733746 2.798664,-22.337768 3.972715,6.660245 2.534393,16.823604 -3.054269,22.086928 -5.354719,5.496864 -15.487959,6.733767 -21.947413,2.746269 -6.593755,-3.671784 -10.37585,-12.970176 -8.292015,-20.127777 -1.971195,7.187875 1.96253,16.343547 8.469639,19.816389 6.364143,3.805855 16.254775,2.408933 21.26291,-2.940887 5.272405,-5.086005 6.472451,-14.907702 2.629704,-21.040317 3.790759,6.162888 2.499735,15.937013 -2.755341,20.914897 -4.98214,5.246024 -14.777462,6.5305 -20.950984,2.750594 C 16.987445,43.639505 13.20535,34.52708 15.267523,27.594371 16.957119,20.56219 24.785578,14.563645 32.029178,14.749613 v -0.01298 a 6.3858048,6.3748057 0 0 0 0.0087,0 6.3858048,6.3748057 0 0 0 6.377139,-6.3704805 6.3858048,6.3748057 0 0 0 -6.377139,-6.3661561 6.3858048,6.3748057 0 0 0 -0.0087,0 z" />
</svg>
