<?xml version="1.0" encoding="UTF-8" standalone="no"?>
<!-- Created with Inkscape (http://www.inkscape.org/) -->

<svg
   xmlns:dc="http://purl.org/dc/elements/1.1/"
   xmlns:cc="http://creativecommons.org/ns#"
   xmlns:rdf="http://www.w3.org/1999/02/22-rdf-syntax-ns#"
   xmlns:svg="http://www.w3.org/2000/svg"
   xmlns="http://www.w3.org/2000/svg"
   xmlns:sodipodi="http://sodipodi.sourceforge.net/DTD/sodipodi-0.dtd"
   xmlns:inkscape="http://www.inkscape.org/namespaces/inkscape"
   width="128"
   height="128"
   viewBox="0 0 33.866666 33.866668"
   version="1.1"
   id="svg8"
   inkscape:version="0.92.4 5da689c313, 2019-01-14"
   sodipodi:docname="clock.svg">
  <defs
     id="defs2" />
  <sodipodi:namedview
     id="base"
     pagecolor="#ffffff"
     bordercolor="#666666"
     borderopacity="1.0"
     inkscape:pageopacity="0.0"
     inkscape:pageshadow="2"
     inkscape:zoom="2.8"
     inkscape:cx="90.246573"
     inkscape:cy="98.639957"
     inkscape:document-units="mm"
     inkscape:current-layer="layer1"
     showgrid="false"
     units="px"
     inkscape:lockguides="false"
     showguides="false"
     inkscape:window-width="1920"
     inkscape:window-height="1050"
     inkscape:window-x="1920"
     inkscape:window-y="0"
     inkscape:window-maximized="1" />
  <metadata
     id="metadata5">
    <rdf:RDF>
      <cc:Work
         rdf:about="">
        <dc:format>image/svg+xml</dc:format>
        <dc:type
           rdf:resource="http://purl.org/dc/dcmitype/StillImage" />
        <dc:title></dc:title>
      </cc:Work>
    </rdf:RDF>
  </metadata>
  <g
     inkscape:label="Layer 1"
     inkscape:groupmode="layer"
     id="layer1"
     transform="translate(0,-263.13332)">
    <circle
       style="fill:#e6e6e6;stroke-width:0.39922151"
       id="path10"
       cx="16.933332"
       cy="280.06665"
       r="16.933332" />
    <circle
       style="fill:#ffffff;stroke-width:0.31047559"
       id="path12"
       cx="16.933332"
       cy="280.06665"
       r="14.2875" />
    <circle
       style="fill:#1a1a1a;stroke-width:0.17200886"
       id="path33"
       cx="16.933332"
       cy="280.06665"
       r="2.1166666" />
    <rect
       style="fill:#1a1a1a;stroke-width:0.22451536"
       id="rect35"
       width="2.1166666"
       height="6.3499999"
       x="-281.125"
       y="18.520834"
       transform="rotate(-90)" />
    <rect
       style="fill:#1a1a1a;stroke-width:0.24598543"
       id="rect37"
       width="2.1166666"
       height="10.583333"
       x="15.875"
       y="267.89581" />
    <path
       style="fill:#4d4d4d;stroke-width:0.12626907"
       d="M 59.203785,127.81248 C 52.668222,127.2574 46.707363,125.90192 40.89477,123.64909 12.657515,112.70493 -4.0508223,83.444781 0.87876077,53.571837 4.1812941,33.558705 16.854988,16.223859 34.89699,7.0423333 42.217455,3.3169673 49.651674,1.1532567 58.193633,0.26190436 60.295496,0.04257515 67.709998,0.04267649 69.810387,0.26206346 80.725872,1.4021912 90.26465,4.7372803 99.028002,10.477558 c 3.711248,2.430988 6.615018,4.774762 9.791208,7.90297 5.26307,5.183544 9.15466,10.547781 12.44532,17.154812 6.51221,13.075326 8.35143,27.91269 5.22535,42.153889 -5.58555,25.445661 -26.0062,44.948141 -51.69894,49.374401 -3.503268,0.60354 -5.627578,0.77722 -10.031316,0.82019 -2.326507,0.0227 -4.826635,-0.009 -5.555839,-0.0713 z m 11.490486,-10.21151 c 4.71742,-0.63371 9.077266,-1.7568 13.258252,-3.41533 17.403577,-6.9037 30.088547,-22.534353 33.256247,-40.978963 0.57671,-3.358055 0.75306,-5.521546 0.75132,-9.217642 -0.002,-4.811849 -0.44545,-8.522766 -1.55327,-13.005714 C 111.61197,31.580349 96.370374,16.364038 76.94459,11.586564 72.095156,10.39392 69.378695,10.077359 64.00201,10.078313 c -4.385424,7.77e-4 -5.787423,0.113434 -9.451002,0.759428 -12.899612,2.274572 -24.592203,9.241991 -32.801598,19.545923 -5.078332,6.374013 -8.684348,13.897007 -10.449072,21.799213 -2.9132096,13.044974 -0.929601,26.527239 5.638309,38.322662 0.997465,1.791366 3.349443,5.28165 4.722397,7.007934 5.033967,6.329457 11.167496,11.285467 18.424698,14.887517 2.139332,1.06184 5.36426,2.38058 7.438155,3.04162 3.208622,1.02272 7.630835,1.9451 10.859139,2.265 0.763928,0.0757 1.587834,0.15988 1.830902,0.18708 0.243068,0.0272 2.260216,0.0314 4.482552,0.009 3.208992,-0.0319 4.443425,-0.0943 5.997781,-0.30305 z"
       id="path43"
       inkscape:connector-curvature="0"
       transform="matrix(0.26458333,0,0,0.26458333,0,263.13332)" />
  </g>
</svg>
